<svg width="694" height="224" fill="none" xmlns="http://www.w3.org/2000/svg"><path d="M526.5 20.158l-.325-.278-.907-.776 1.232 1.054zm0 0l.325-.278m-.325.278l.325-.278m0 0l.907-.776-.907.776zm2.933-2.82h-.001c-.719.824-1.394 1.507-2.024 2.044l2.025-2.044zm0 0a20.541 20.541 0 002.022-2.773h0m-2.022 2.773l2.022-2.773m0 0c.644-1.053.981-2.124.981-3.208 0-1.727-.613-3.213-1.83-4.43-1.217-1.217-2.704-1.83-4.431-1.83-1.727 0-3.214.613-4.431 1.83s-1.83 2.703-1.83 4.43c0 1.084.337 2.155.981 3.208h0m10.56 0h-10.56m0 0a20.541 20.541 0 002.022 2.773h.001m-2.023-2.773l2.023 2.773m0 0c.719.824 1.394 1.507 2.024 2.044l-2.024-2.044zm2.349-5.514l-.001-.002a1.211 1.211 0 01-.364-.908c0-.376.122-.668.364-.91.241-.24.532-.362.909-.362.376 0 .668.121.91.362.241.242.363.534.363.91 0 .377-.122.668-.363.909a1.217 1.217 0 01-.91.364c-.376 0-.667-.122-.908-.363zm-14.626 9.306h0c-2.313-2.312-3.466-5.117-3.466-8.443 0-3.326 1.153-6.131 3.466-8.444C513.278 1.653 516.083.5 519.409.5h14.182c3.326 0 6.131 1.153 8.443 3.465 2.313 2.313 3.466 5.118 3.466 8.444 0 3.326-1.153 6.13-3.466 8.443h0c-2.312 2.313-5.117 3.466-8.443 3.466h-14.182c-3.326 0-6.131-1.153-8.443-3.466z" stroke="#012228"/><path d="M557.119 7.227h1.864l3.241 7.915h.12l3.241-7.915h1.865V17.41h-1.462v-7.368h-.095l-3.002 7.353h-1.213l-3.003-7.358h-.095v7.373h-1.461V7.227zm15.736 10.336c-.752 0-1.4-.16-1.944-.482a3.273 3.273 0 01-1.253-1.367c-.291-.59-.437-1.281-.437-2.073 0-.783.146-1.472.437-2.069a3.398 3.398 0 011.233-1.397c.53-.334 1.15-.502 1.86-.502.43 0 .848.072 1.252.214a3.03 3.03 0 011.089.671c.322.305.575.701.761 1.188.185.484.278 1.073.278 1.765v.527h-6.07v-1.113h4.614a2.2 2.2 0 00-.239-1.04 1.805 1.805 0 00-.671-.72 1.876 1.876 0 00-1.005-.264c-.417 0-.782.103-1.093.309a2.063 2.063 0 00-.716.795 2.293 2.293 0 00-.249 1.059v.87c0 .51.09.945.269 1.303.182.357.436.63.76.82.325.185.705.278 1.139.278.282 0 .538-.04.77-.12.232-.082.433-.205.602-.367a1.6 1.6 0 00.388-.602l1.407.254a2.549 2.549 0 01-.607 1.089 2.935 2.935 0 01-1.089.72c-.434.17-.929.254-1.486.254zm8.142 0c-.739 0-1.375-.167-1.909-.502a3.327 3.327 0 01-1.223-1.397c-.285-.593-.427-1.273-.427-2.038 0-.776.145-1.46.437-2.054a3.356 3.356 0 011.233-1.397c.53-.334 1.155-.502 1.874-.502.58 0 1.097.108 1.551.323.454.213.821.51 1.099.895a2.7 2.7 0 01.502 1.348h-1.446a1.737 1.737 0 00-.547-.925c-.282-.259-.66-.388-1.134-.388-.414 0-.777.11-1.089.328-.308.216-.548.524-.721.925-.172.398-.258.868-.258 1.412 0 .557.084 1.037.253 1.442.17.404.408.717.716.94.312.221.678.332 1.099.332.282 0 .537-.051.766-.154.232-.106.426-.257.581-.452.159-.196.271-.431.334-.706h1.446a2.815 2.815 0 01-.482 1.322 2.77 2.77 0 01-1.079.915c-.447.222-.973.333-1.576.333zm4.149-6.508V9.773h6.443v1.282h-2.491v6.354h-1.451v-6.354h-2.501zm10.877 6.508c-.716 0-1.341-.164-1.875-.492a3.323 3.323 0 01-1.243-1.377c-.295-.59-.442-1.28-.442-2.068 0-.792.147-1.485.442-2.078a3.316 3.316 0 011.243-1.383c.534-.328 1.159-.492 1.875-.492.715 0 1.34.164 1.874.492.533.329.948.79 1.243 1.383.295.593.442 1.286.442 2.078 0 .789-.147 1.478-.442 2.068a3.323 3.323 0 01-1.243 1.377c-.534.328-1.159.492-1.874.492zm.005-1.248c.464 0 .848-.122 1.153-.368.305-.245.53-.571.676-.979a3.9 3.9 0 00.224-1.347c0-.488-.075-.935-.224-1.343a2.187 2.187 0 00-.676-.989c-.305-.248-.689-.373-1.153-.373-.468 0-.856.124-1.164.373a2.219 2.219 0 00-.681.99 3.956 3.956 0 00-.219 1.342c0 .49.073.94.219 1.347.149.408.376.734.681.98.308.245.696.367 1.164.367zm12.135 1.248c-.716 0-1.34-.164-1.874-.492a3.316 3.316 0 01-1.243-1.377c-.295-.59-.442-1.28-.442-2.068 0-.792.147-1.485.442-2.078a3.31 3.31 0 011.243-1.383c.534-.328 1.158-.492 1.874-.492.716 0 1.341.164 1.874.492a3.31 3.31 0 011.243 1.383c.295.593.443 1.286.443 2.078 0 .789-.148 1.478-.443 2.068a3.316 3.316 0 01-1.243 1.377c-.533.328-1.158.492-1.874.492zm.005-1.248c.464 0 .849-.122 1.154-.368a2.16 2.16 0 00.676-.979 3.9 3.9 0 00.223-1.347c0-.488-.074-.935-.223-1.343a2.194 2.194 0 00-.676-.989c-.305-.248-.69-.373-1.154-.373-.467 0-.855.124-1.163.373a2.219 2.219 0 00-.681.99 3.956 3.956 0 00-.219 1.342c0 .49.073.94.219 1.347.149.408.376.734.681.98.308.245.696.367 1.163.367zm4.294-5.26V9.773h6.444v1.282h-2.491v6.354h-1.452v-6.354h-2.501zm8.016 6.354V9.773h6.229v7.636h-1.456v-6.354h-3.326v6.354h-1.447zm8.217 2.864v-10.5h1.451v1.238h.125c.086-.16.21-.343.372-.552.163-.209.388-.391.677-.547.288-.16.669-.239 1.143-.239a2.98 2.98 0 011.651.468c.484.311.863.76 1.138 1.347.279.587.418 1.293.418 2.118s-.138 1.533-.413 2.123c-.275.586-.653 1.039-1.133 1.357a2.938 2.938 0 01-1.646.472c-.464 0-.844-.078-1.139-.233a2.165 2.165 0 01-.686-.547 4.146 4.146 0 01-.382-.557h-.09v4.052h-1.486zm1.456-6.682c0 .537.078 1.008.234 1.412.156.404.381.72.676.95.295.225.656.338 1.084.338.444 0 .815-.118 1.114-.354a2.19 2.19 0 00.676-.969c.155-.408.233-.867.233-1.377 0-.504-.076-.956-.228-1.357a2.082 2.082 0 00-.677-.95c-.298-.232-.671-.348-1.118-.348-.431 0-.796.111-1.094.333-.295.222-.519.532-.671.93-.152.398-.229.862-.229 1.392zm9.407 3.987c-.484 0-.922-.09-1.313-.268a2.214 2.214 0 01-.93-.79c-.225-.346-.338-.768-.338-1.269 0-.43.083-.785.249-1.063.166-.279.389-.5.671-.662a3.51 3.51 0 01.945-.368 9.335 9.335 0 011.064-.188l1.113-.13c.285-.036.492-.094.622-.174.129-.08.194-.209.194-.388v-.034c0-.435-.123-.771-.368-1.01-.242-.238-.604-.358-1.084-.358-.501 0-.895.111-1.183.334-.285.218-.483.462-.592.73l-1.397-.318c.166-.464.408-.838.726-1.123a2.941 2.941 0 011.108-.627 4.332 4.332 0 011.318-.199c.305 0 .628.037.969.11.345.07.667.199.965.388.301.188.548.459.741.81.192.348.288.8.288 1.357v5.071h-1.452v-1.044h-.059a2.12 2.12 0 01-.433.567c-.192.185-.439.34-.741.462-.301.123-.663.184-1.083.184zm.323-1.193c.411 0 .762-.081 1.054-.244.295-.162.518-.374.671-.636.156-.265.233-.549.233-.85v-.984c-.053.053-.155.102-.308.149-.149.043-.32.08-.512.114l-.562.085-.457.06a3.678 3.678 0 00-.79.183 1.35 1.35 0 00-.567.373c-.139.159-.209.371-.209.636 0 .368.136.647.408.835.271.186.618.279 1.039.279zm5.425 1.024V9.773h3.167c.862 0 1.544.184 2.048.552.504.364.756.86.756 1.486 0 .447-.143.802-.428 1.064-.285.262-.663.438-1.133.527a2.4 2.4 0 01.939.308c.285.163.514.381.686.656.176.276.264.604.264.985 0 .404-.104.762-.313 1.074-.209.308-.512.55-.91.726-.394.172-.87.258-1.427.258h-3.649zm1.397-1.243h2.252c.368 0 .656-.088.865-.263.209-.176.313-.415.313-.716 0-.355-.104-.633-.313-.835-.209-.206-.497-.309-.865-.309h-2.252v2.123zm0-3.212h1.785c.278 0 .517-.04.716-.119a1.01 1.01 0 00.462-.338.87.87 0 00.164-.527.792.792 0 00-.363-.69c-.242-.167-.573-.25-.994-.25h-1.77v1.925zm5.931 4.455l-.005-1.288h.274a.978.978 0 00.531-.134c.146-.093.266-.248.358-.467.093-.219.164-.52.214-.905.05-.388.086-.875.11-1.462l.134-3.38h5.329v7.636h-1.456v-6.354h-2.496l-.119 2.596c-.03.63-.095 1.18-.194 1.65-.096.47-.237.864-.423 1.178a1.832 1.832 0 01-.716.701c-.291.153-.646.23-1.064.23h-.477zm12.219.154c-.752 0-1.4-.16-1.944-.482a3.273 3.273 0 01-1.253-1.367c-.291-.59-.437-1.281-.437-2.073 0-.783.146-1.472.437-2.069a3.398 3.398 0 011.233-1.397c.531-.334 1.15-.502 1.86-.502.43 0 .848.072 1.252.214a3.03 3.03 0 011.089.671c.322.305.575.701.761 1.188.185.484.278 1.073.278 1.765v.527h-6.07v-1.113h4.614a2.2 2.2 0 00-.239-1.04 1.805 1.805 0 00-.671-.72 1.875 1.875 0 00-1.004-.264 1.94 1.94 0 00-1.094.309 2.07 2.07 0 00-.716.795 2.293 2.293 0 00-.249 1.059v.87c0 .51.09.945.269 1.303.182.357.436.63.76.82.325.185.705.278 1.139.278.282 0 .538-.04.77-.12a1.65 1.65 0 00.602-.367 1.6 1.6 0 00.388-.602l1.407.254a2.549 2.549 0 01-.607 1.089 2.935 2.935 0 01-1.089.72c-.434.17-.929.254-1.486.254zm10.101-4.613v1.287h-4.136V12.95h4.136zm-3.719-3.177v7.636h-1.456V9.773h1.456zm4.758 0v7.636h-1.452V9.773h1.452zm3.445 5.553l3.366-5.553h1.601v7.636h-1.457v-5.558l-3.351 5.558h-1.615V9.773h1.456v5.553zm11.52 2.083v-6.368h-1.83c-.434 0-.772.1-1.014.303a.986.986 0 00-.363.795c0 .325.111.587.333.786.225.195.54.293.945.293h2.361v1.203h-2.361c-.564 0-1.051-.093-1.462-.278a2.183 2.183 0 01-.945-.8c-.218-.345-.328-.753-.328-1.224 0-.48.113-.895.338-1.243.229-.35.555-.623.98-.815.427-.192.933-.288 1.516-.288h3.227v7.636h-1.397zm-5.012 0l2.153-3.858h1.521l-2.152 3.858h-1.522z" fill="#012228"/><path d="M487 12C375.183 13.192 28.524 27.374 69.318 74.568 120.311 133.561 614.742 125.516 236.796 209" stroke="#012228" stroke-dasharray="4 4"/><path d="M1.119 199.591h1.864l3.241 7.915h.12l3.241-7.915h1.865v10.182H9.988v-7.368h-.095l-3.002 7.353H5.678L2.675 202.4H2.58v7.373H1.12v-10.182zm15.736 10.336c-.752 0-1.4-.161-1.944-.482a3.273 3.273 0 01-1.253-1.368c-.291-.59-.437-1.281-.437-2.073 0-.782.146-1.471.437-2.068a3.396 3.396 0 011.233-1.397c.53-.335 1.15-.502 1.86-.502.43 0 .848.071 1.252.214a3.03 3.03 0 011.09.671c.32.305.574.701.76 1.188.185.484.278 1.072.278 1.765v.527h-6.07v-1.114h4.613c0-.391-.079-.737-.238-1.039a1.806 1.806 0 00-.671-.721 1.881 1.881 0 00-1.005-.263c-.417 0-.782.103-1.093.308a2.064 2.064 0 00-.716.796 2.292 2.292 0 00-.249 1.059v.87c0 .51.09.944.269 1.302.182.358.435.632.76.82.325.186.705.279 1.139.279.282 0 .538-.04.77-.119.232-.083.433-.206.602-.368.169-.163.298-.363.388-.602l1.407.254a2.543 2.543 0 01-.607 1.088 2.926 2.926 0 01-1.089.721c-.434.169-.93.254-1.486.254zm8.142 0c-.739 0-1.375-.168-1.909-.502a3.325 3.325 0 01-1.223-1.397c-.285-.594-.427-1.273-.427-2.039 0-.775.145-1.46.437-2.053a3.35 3.35 0 011.233-1.397c.53-.335 1.155-.502 1.874-.502.58 0 1.097.108 1.551.323.454.212.82.511 1.1.895.28.384.448.834.501 1.347h-1.447a1.729 1.729 0 00-.546-.924c-.282-.259-.66-.388-1.134-.388-.414 0-.777.109-1.089.328-.308.215-.548.524-.72.925-.173.397-.26.868-.26 1.412 0 .556.085 1.037.255 1.441.168.405.407.718.715.94.312.222.678.333 1.1.333.28 0 .536-.051.765-.154.232-.106.426-.257.581-.452.16-.196.27-.431.334-.706h1.446a2.813 2.813 0 01-.482 1.322 2.774 2.774 0 01-1.079.915c-.447.222-.973.333-1.576.333zm4.149-6.508v-1.283h6.443v1.283H33.1v6.354h-1.452v-6.354h-2.501zm10.877 6.508c-.716 0-1.341-.164-1.875-.492a3.323 3.323 0 01-1.243-1.377c-.295-.59-.442-1.28-.442-2.069 0-.792.147-1.485.442-2.078a3.312 3.312 0 011.243-1.382c.534-.328 1.159-.492 1.874-.492.717 0 1.341.164 1.875.492a3.31 3.31 0 011.243 1.382c.295.593.442 1.286.442 2.078 0 .789-.147 1.479-.442 2.069a3.323 3.323 0 01-1.243 1.377c-.534.328-1.158.492-1.874.492zm.005-1.248c.464 0 .848-.123 1.153-.368.305-.245.53-.572.676-.979a3.9 3.9 0 00.224-1.348c0-.487-.075-.934-.224-1.342a2.183 2.183 0 00-.676-.989c-.305-.249-.69-.373-1.153-.373-.468 0-.856.124-1.164.373a2.216 2.216 0 00-.68.989 3.958 3.958 0 00-.22 1.342c0 .491.073.94.22 1.348.148.407.375.734.68.979.308.245.696.368 1.164.368zm8.919 1.094v-7.637h6.229v7.637h-1.457v-6.354h-3.326v6.354h-1.446zm8.216 2.863v-10.5h1.452v1.238h.124c.087-.159.21-.343.373-.552.163-.208.388-.391.676-.546.289-.16.67-.239 1.144-.239.616 0 1.166.156 1.65.467.484.312.864.761 1.139 1.348.278.586.417 1.292.417 2.117 0 .826-.137 1.533-.412 2.123-.275.587-.653 1.039-1.134 1.358a2.94 2.94 0 01-1.645.472c-.464 0-.844-.078-1.139-.234a2.156 2.156 0 01-.686-.547 4.107 4.107 0 01-.383-.556h-.09v4.051h-1.486zm1.457-6.681c0 .536.078 1.007.234 1.411.156.405.38.721.676.95.295.225.656.338 1.084.338.444 0 .815-.118 1.113-.353a2.19 2.19 0 00.676-.969c.156-.408.234-.867.234-1.377 0-.504-.076-.957-.229-1.358a2.076 2.076 0 00-.676-.949c-.298-.232-.67-.348-1.118-.348-.431 0-.796.111-1.094.333-.295.222-.519.532-.671.93-.153.397-.229.861-.229 1.392zm8.64 1.735l3.366-5.554h1.601v7.637h-1.456v-5.559l-3.351 5.559h-1.616v-7.637h1.457v5.554zm12.857-8.397l.617.939a2.032 2.032 0 01-.78.448 4.457 4.457 0 01-1 .164c-.378.02-.81.038-1.298.054-.55.017-1.002.136-1.357.358-.355.219-.628.544-.82.975-.19.427-.312.964-.368 1.611h.094a2.466 2.466 0 011.034-1.064 3.139 3.139 0 011.497-.353c.616 0 1.165.141 1.645.422.481.282.859.695 1.134 1.238.278.54.418 1.202.418 1.984 0 .792-.146 1.476-.438 2.053a3.169 3.169 0 01-1.223 1.338c-.524.311-1.142.467-1.854.467-.713 0-1.334-.161-1.865-.482-.527-.325-.936-.806-1.228-1.442-.288-.637-.432-1.422-.432-2.357v-.755c0-1.747.311-3.061.934-3.943.624-.881 1.555-1.334 2.794-1.357.401-.01.76-.012 1.074-.005.315.003.59-.012.826-.045.238-.036.437-.119.596-.248zm-2.694 9.386c.414 0 .77-.104 1.069-.313a2.02 2.02 0 00.695-.9c.163-.388.244-.845.244-1.372 0-.517-.081-.956-.243-1.318a1.826 1.826 0 00-.697-.825c-.301-.192-.662-.288-1.083-.288-.312 0-.59.054-.836.164a1.691 1.691 0 00-.63.472 2.27 2.27 0 00-.404.766 3.673 3.673 0 00-.149 1.029c0 .789.18 1.417.542 1.884.365.467.862.701 1.492.701zm6.289-3.918h2.217c.935 0 1.654.232 2.158.696.503.464.755 1.063.755 1.795 0 .477-.112.907-.338 1.288a2.368 2.368 0 01-.99.905c-.433.218-.962.328-1.585.328h-3.336v-7.637h1.457v6.354h1.879c.427 0 .779-.111 1.054-.333.275-.225.413-.512.413-.86 0-.368-.138-.668-.413-.9-.275-.235-.627-.353-1.054-.353h-2.217v-1.283zm6.214 5.012v-7.637h1.487v7.637h-1.487zm3.054-6.354v-1.283h6.443v1.283h-2.49v6.354H95.48v-6.354h-2.5zm9.472 4.271l3.366-5.554h1.601v7.637h-1.457v-5.559l-3.351 5.559h-1.616v-7.637h1.457v5.554zm11.519 2.083v-6.369h-1.829c-.434 0-.773.101-1.015.303a.99.99 0 00-.362.796c0 .325.111.586.333.785.225.196.54.294.944.294h2.362v1.203h-2.362c-.563 0-1.05-.093-1.461-.279a2.18 2.18 0 01-.945-.8c-.219-.345-.328-.752-.328-1.223 0-.481.113-.895.338-1.243.229-.351.555-.623.979-.815.428-.193.933-.289 1.517-.289h3.226v7.637h-1.397zm-5.011 0l2.153-3.858h1.521l-2.153 3.858h-1.521z" fill="#012228"/><path d="M156.175 215.88l.325.278.325-.278 1.372-1.174c.941-.802 1.954-1.825 3.038-3.066h0a30.705 30.705 0 003.034-4.16v-.001c.955-1.56 1.447-3.134 1.447-4.718 0-2.545-.902-4.729-2.694-6.521-1.793-1.793-3.976-2.695-6.522-2.695-2.546 0-4.729.902-6.522 2.695-1.792 1.792-2.694 3.976-2.694 6.521 0 1.584.492 3.158 1.447 4.718v.001a30.705 30.705 0 003.034 4.16h0c1.084 1.241 2.096 2.264 3.037 3.066h.001l1.372 1.174zm-1.23-12.233l-.002-.001c-.416-.414-.625-.921-.625-1.555 0-.634.209-1.142.626-1.559.415-.414.922-.623 1.556-.623s1.142.209 1.559.623c.414.417.623.925.623 1.559 0 .634-.209 1.141-.623 1.556-.417.417-.925.626-1.559.626-.634 0-1.141-.209-1.555-.626zm-22.126 14.079h0c-3.548-3.546-5.319-7.854-5.319-12.953 0-5.099 1.771-9.408 5.319-12.957 3.547-3.546 7.855-5.316 12.954-5.316h21.454c5.099 0 9.407 1.77 12.954 5.316 3.548 3.549 5.319 7.858 5.319 12.957 0 5.099-1.771 9.407-5.319 12.953h0c-3.547 3.549-7.855 5.319-12.954 5.319h-21.454c-5.099 0-9.407-1.77-12.954-5.319z" stroke="#012228"/></svg>