<svg width="694" height="224" viewBox="0 0 694 224" fill="none" xmlns="http://www.w3.org/2000/svg">
<path d="M526.5 20.158L526.175 19.8799L525.268 19.1042L526.5 20.158ZM526.5 20.158L526.825 19.8799M526.5 20.158L526.825 19.8799M526.825 19.8799L527.732 19.1042L526.825 19.8799ZM529.758 17.0596L529.757 17.0599C529.038 17.884 528.363 18.5668 527.733 19.1035L529.758 17.0596ZM529.758 17.0596C530.486 16.2239 531.16 15.2993 531.78 14.2869L531.78 14.2867M529.758 17.0596L531.78 14.2867M531.78 14.2867C532.424 13.234 532.761 12.1628 532.761 11.0795C532.761 9.3522 532.148 7.86572 530.931 6.64872C529.714 5.43171 528.227 4.81818 526.5 4.81818C524.773 4.81818 523.286 5.43171 522.069 6.64872C520.852 7.86572 520.239 9.3522 520.239 11.0795C520.239 12.1628 520.576 13.234 521.22 14.2867L521.22 14.2869M531.78 14.2867L521.22 14.2869M521.22 14.2869C521.84 15.2993 522.514 16.2239 523.242 17.0596L523.243 17.0599M521.22 14.2869L523.243 17.0599M523.243 17.0599C523.962 17.884 524.637 18.5668 525.267 19.1035L523.243 17.0599ZM525.592 11.5456L525.591 11.5444C525.349 11.3036 525.227 11.0124 525.227 10.6364C525.227 10.2603 525.349 9.96811 525.591 9.72596C525.832 9.48536 526.123 9.36364 526.5 9.36364C526.876 9.36364 527.168 9.48519 527.41 9.72597C527.651 9.96787 527.773 10.26 527.773 10.6364C527.773 11.013 527.651 11.3044 527.41 11.545C527.168 11.7871 526.876 11.9091 526.5 11.9091C526.124 11.9091 525.833 11.7872 525.592 11.5456ZM510.966 20.8519L510.966 20.8517C508.653 18.5397 507.5 15.7355 507.5 12.4091C507.5 9.08267 508.653 6.27782 510.966 3.9646C513.278 1.65261 516.083 0.5 519.409 0.5H533.591C536.917 0.5 539.722 1.65261 542.034 3.9646C544.347 6.27782 545.5 9.08267 545.5 12.4091C545.5 15.7355 544.347 18.5397 542.034 20.8517L542.034 20.8519C539.722 23.165 536.917 24.3182 533.591 24.3182H519.409C516.083 24.3182 513.278 23.165 510.966 20.8519Z" stroke="#012228"/>
<path d="M557.119 7.22727H558.983L562.224 15.142H562.344L565.585 7.22727H567.45V17.4091H565.988V10.0412H565.893L562.891 17.3942H561.678L558.675 10.0362H558.58V17.4091H557.119V7.22727ZM572.855 17.5632C572.103 17.5632 571.455 17.4025 570.911 17.081C570.371 16.7562 569.953 16.3004 569.658 15.7138C569.367 15.1238 569.221 14.4328 569.221 13.6406C569.221 12.8584 569.367 12.169 569.658 11.5724C569.953 10.9758 570.364 10.5102 570.891 10.1754C571.421 9.84067 572.041 9.67329 572.751 9.67329C573.181 9.67329 573.599 9.74455 574.003 9.88707C574.408 10.0296 574.771 10.2533 575.092 10.5582C575.414 10.8632 575.667 11.2592 575.853 11.7464C576.038 12.2303 576.131 12.8187 576.131 13.5114V14.0383H570.061V12.9247H574.675C574.675 12.5336 574.595 12.1873 574.436 11.8857C574.277 11.5807 574.053 11.3404 573.765 11.1648C573.48 10.9891 573.145 10.9013 572.76 10.9013C572.343 10.9013 571.978 11.004 571.667 11.2095C571.358 11.4117 571.12 11.6768 570.951 12.005C570.785 12.3298 570.702 12.6828 570.702 13.0639V13.9339C570.702 14.4444 570.792 14.8785 570.971 15.2365C571.153 15.5945 571.407 15.8679 571.731 16.0568C572.056 16.2424 572.436 16.3352 572.87 16.3352C573.152 16.3352 573.408 16.2955 573.64 16.2159C573.872 16.133 574.073 16.0104 574.242 15.848C574.411 15.6856 574.54 15.4851 574.63 15.2464L576.037 15.5C575.924 15.9143 575.722 16.2772 575.43 16.5888C575.142 16.897 574.779 17.1373 574.341 17.3097C573.907 17.4787 573.412 17.5632 572.855 17.5632ZM580.997 17.5632C580.258 17.5632 579.622 17.3958 579.088 17.0611C578.558 16.723 578.15 16.2573 577.865 15.6641C577.58 15.0708 577.438 14.3913 577.438 13.6257C577.438 12.8501 577.583 12.1657 577.875 11.5724C578.167 10.9758 578.578 10.5102 579.108 10.1754C579.638 9.84067 580.263 9.67329 580.982 9.67329C581.562 9.67329 582.079 9.78101 582.533 9.99645C582.987 10.2086 583.354 10.5069 583.632 10.8913C583.914 11.2758 584.081 11.7249 584.134 12.2386H582.688C582.608 11.8807 582.426 11.5724 582.141 11.3139C581.859 11.0554 581.481 10.9261 581.007 10.9261C580.593 10.9261 580.23 11.0355 579.918 11.2543C579.61 11.4697 579.37 11.7779 579.197 12.179C579.025 12.5767 578.939 13.0473 578.939 13.5909C578.939 14.1477 579.023 14.6283 579.192 15.0327C579.362 15.437 579.6 15.7502 579.908 15.9723C580.22 16.1944 580.586 16.3054 581.007 16.3054C581.289 16.3054 581.544 16.254 581.773 16.1513C582.005 16.0452 582.199 15.8944 582.354 15.6989C582.513 15.5033 582.625 15.268 582.688 14.9929H584.134C584.081 15.4867 583.92 15.9276 583.652 16.3153C583.384 16.7031 583.024 17.008 582.573 17.2301C582.126 17.4522 581.6 17.5632 580.997 17.5632ZM585.146 11.0554V9.77272H591.589V11.0554H589.098V17.4091H587.647V11.0554H585.146ZM596.023 17.5632C595.307 17.5632 594.682 17.3991 594.148 17.071C593.615 16.7429 593.2 16.2839 592.905 15.6939C592.61 15.1039 592.463 14.4145 592.463 13.6257C592.463 12.8336 592.61 12.1409 592.905 11.5476C593.2 10.9543 593.615 10.4936 594.148 10.1655C594.682 9.83736 595.307 9.67329 596.023 9.67329C596.738 9.67329 597.363 9.83736 597.897 10.1655C598.43 10.4936 598.845 10.9543 599.14 11.5476C599.435 12.1409 599.582 12.8336 599.582 13.6257C599.582 14.4145 599.435 15.1039 599.14 15.6939C598.845 16.2839 598.43 16.7429 597.897 17.071C597.363 17.3991 596.738 17.5632 596.023 17.5632ZM596.028 16.3153C596.492 16.3153 596.876 16.1927 597.181 15.9474C597.486 15.7022 597.711 15.3757 597.857 14.968C598.006 14.5604 598.081 14.1113 598.081 13.6207C598.081 13.1335 598.006 12.6861 597.857 12.2784C597.711 11.8674 597.486 11.5376 597.181 11.2891C596.876 11.0405 596.492 10.9162 596.028 10.9162C595.56 10.9162 595.172 11.0405 594.864 11.2891C594.559 11.5376 594.332 11.8674 594.183 12.2784C594.037 12.6861 593.964 13.1335 593.964 13.6207C593.964 14.1113 594.037 14.5604 594.183 14.968C594.332 15.3757 594.559 15.7022 594.864 15.9474C595.172 16.1927 595.56 16.3153 596.028 16.3153ZM608.163 17.5632C607.447 17.5632 606.823 17.3991 606.289 17.071C605.755 16.7429 605.341 16.2839 605.046 15.6939C604.751 15.1039 604.604 14.4145 604.604 13.6257C604.604 12.8336 604.751 12.1409 605.046 11.5476C605.341 10.9543 605.755 10.4936 606.289 10.1655C606.823 9.83736 607.447 9.67329 608.163 9.67329C608.879 9.67329 609.504 9.83736 610.037 10.1655C610.571 10.4936 610.985 10.9543 611.28 11.5476C611.575 12.1409 611.723 12.8336 611.723 13.6257C611.723 14.4145 611.575 15.1039 611.28 15.6939C610.985 16.2839 610.571 16.7429 610.037 17.071C609.504 17.3991 608.879 17.5632 608.163 17.5632ZM608.168 16.3153C608.632 16.3153 609.017 16.1927 609.322 15.9474C609.626 15.7022 609.852 15.3757 609.998 14.968C610.147 14.5604 610.221 14.1113 610.221 13.6207C610.221 13.1335 610.147 12.6861 609.998 12.2784C609.852 11.8674 609.626 11.5376 609.322 11.2891C609.017 11.0405 608.632 10.9162 608.168 10.9162C607.701 10.9162 607.313 11.0405 607.005 11.2891C606.7 11.5376 606.473 11.8674 606.324 12.2784C606.178 12.6861 606.105 13.1335 606.105 13.6207C606.105 14.1113 606.178 14.5604 606.324 14.968C606.473 15.3757 606.7 15.7022 607.005 15.9474C607.313 16.1927 607.701 16.3153 608.168 16.3153ZM612.462 11.0554V9.77272H618.906V11.0554H616.415V17.4091H614.963V11.0554H612.462ZM620.478 17.4091V9.77272H626.707V17.4091H625.251V11.0554H621.925V17.4091H620.478ZM628.695 20.2727V9.77272H630.146V11.0107H630.271C630.357 10.8516 630.481 10.6676 630.643 10.4588C630.806 10.25 631.031 10.0677 631.32 9.91193C631.608 9.75284 631.989 9.67329 632.463 9.67329C633.08 9.67329 633.63 9.82907 634.114 10.1406C634.598 10.4522 634.977 10.9013 635.252 11.4879C635.531 12.0746 635.67 12.7805 635.67 13.6058C635.67 14.4311 635.532 15.1387 635.257 15.7287C634.982 16.3153 634.604 16.7678 634.124 17.0859C633.643 17.4008 633.094 17.5582 632.478 17.5582C632.014 17.5582 631.634 17.4803 631.339 17.3246C631.048 17.1688 630.819 16.9865 630.653 16.7777C630.488 16.5689 630.36 16.3833 630.271 16.2209H630.181V20.2727H628.695ZM630.151 13.5909C630.151 14.1278 630.229 14.5985 630.385 15.0028C630.541 15.4072 630.766 15.7237 631.061 15.9524C631.356 16.1778 631.717 16.2905 632.145 16.2905C632.589 16.2905 632.96 16.1728 633.259 15.9375C633.557 15.6989 633.782 15.3757 633.935 14.968C634.09 14.5604 634.168 14.1013 634.168 13.5909C634.168 13.0871 634.092 12.6347 633.94 12.2337C633.79 11.8326 633.565 11.5161 633.263 11.2841C632.965 11.0521 632.592 10.9361 632.145 10.9361C631.714 10.9361 631.349 11.0471 631.051 11.2692C630.756 11.4912 630.532 11.8011 630.38 12.1989C630.228 12.5966 630.151 13.0606 630.151 13.5909ZM639.558 17.5781C639.074 17.5781 638.636 17.4886 638.245 17.3097C637.854 17.1274 637.544 16.8639 637.315 16.5192C637.09 16.1745 636.977 15.7519 636.977 15.2514C636.977 14.8205 637.06 14.4659 637.226 14.1875C637.392 13.9091 637.615 13.6887 637.897 13.5263C638.179 13.3639 638.494 13.2412 638.842 13.1584C639.19 13.0755 639.544 13.0125 639.906 12.9695C640.363 12.9164 640.734 12.8733 641.019 12.8402C641.304 12.8037 641.511 12.7457 641.641 12.6662C641.77 12.5866 641.835 12.4574 641.835 12.2784V12.2436C641.835 11.8094 641.712 11.473 641.467 11.2344C641.225 10.9957 640.863 10.8764 640.383 10.8764C639.882 10.8764 639.488 10.9874 639.2 11.2095C638.915 11.4283 638.717 11.6719 638.608 11.9403L637.211 11.6222C637.377 11.1581 637.619 10.7836 637.937 10.4986C638.258 10.2102 638.628 10.0014 639.045 9.87216C639.463 9.73958 639.902 9.67329 640.363 9.67329C640.668 9.67329 640.991 9.70975 641.332 9.78267C641.677 9.85227 641.999 9.98153 642.297 10.1705C642.598 10.3594 642.845 10.6295 643.038 10.9808C643.23 11.3288 643.326 11.7812 643.326 12.3381V17.4091H641.874V16.3651H641.815C641.719 16.5573 641.574 16.7462 641.382 16.9318C641.19 17.1174 640.943 17.2715 640.641 17.3942C640.34 17.5168 639.978 17.5781 639.558 17.5781ZM639.881 16.3849C640.292 16.3849 640.643 16.3037 640.935 16.1413C641.23 15.9789 641.453 15.7668 641.606 15.505C641.762 15.2398 641.839 14.9564 641.839 14.6548V13.6705C641.786 13.7235 641.684 13.7732 641.531 13.8196C641.382 13.8627 641.211 13.9008 641.019 13.9339C640.827 13.9638 640.64 13.9919 640.457 14.0185C640.275 14.0417 640.123 14.0616 640 14.0781C639.712 14.1146 639.448 14.1759 639.21 14.2621C638.974 14.3482 638.785 14.4725 638.643 14.6349C638.504 14.794 638.434 15.0062 638.434 15.2713C638.434 15.6392 638.57 15.9176 638.842 16.1065C639.113 16.2921 639.46 16.3849 639.881 16.3849ZM645.306 17.4091V9.77272H648.473C649.335 9.77272 650.017 9.95667 650.521 10.3246C651.025 10.6892 651.277 11.1847 651.277 11.8111C651.277 12.2585 651.134 12.6132 650.849 12.875C650.564 13.1368 650.186 13.3125 649.716 13.402C650.057 13.4418 650.37 13.5445 650.655 13.7102C650.94 13.8726 651.169 14.0914 651.341 14.3665C651.517 14.6416 651.605 14.9697 651.605 15.3508C651.605 15.7552 651.501 16.1132 651.292 16.4247C651.083 16.733 650.78 16.9749 650.382 17.1506C649.988 17.3229 649.512 17.4091 648.955 17.4091H645.306ZM646.703 16.1662H648.955C649.323 16.1662 649.611 16.0784 649.82 15.9027C650.029 15.727 650.133 15.4884 650.133 15.1868C650.133 14.8321 650.029 14.5537 649.82 14.3516C649.611 14.1461 649.323 14.0433 648.955 14.0433H646.703V16.1662ZM646.703 12.9545H648.488C648.766 12.9545 649.005 12.9148 649.204 12.8352C649.406 12.7557 649.56 12.643 649.666 12.4972C649.775 12.348 649.83 12.1723 649.83 11.9702C649.83 11.6752 649.709 11.4448 649.467 11.2791C649.225 11.1134 648.894 11.0305 648.473 11.0305H646.703V12.9545ZM652.634 17.4091L652.629 16.1214H652.903C653.115 16.1214 653.292 16.0767 653.434 15.9872C653.58 15.8944 653.7 15.7386 653.792 15.5199C653.885 15.3011 653.956 14.9995 654.006 14.6151C654.056 14.2273 654.092 13.7401 654.116 13.1534L654.25 9.77272H659.579V17.4091H658.123V11.0554H655.627L655.508 13.6506C655.478 14.2803 655.413 14.8305 655.314 15.3011C655.218 15.7718 655.077 16.1645 654.891 16.4794C654.706 16.791 654.467 17.0246 654.175 17.1804C653.884 17.3329 653.529 17.4091 653.111 17.4091H652.634ZM664.853 17.5632C664.101 17.5632 663.453 17.4025 662.909 17.081C662.369 16.7562 661.951 16.3004 661.656 15.7138C661.365 15.1238 661.219 14.4328 661.219 13.6406C661.219 12.8584 661.365 12.169 661.656 11.5724C661.951 10.9758 662.362 10.5102 662.889 10.1754C663.42 9.84067 664.039 9.67329 664.749 9.67329C665.179 9.67329 665.597 9.74455 666.001 9.88707C666.406 10.0296 666.769 10.2533 667.09 10.5582C667.412 10.8632 667.665 11.2592 667.851 11.7464C668.036 12.2303 668.129 12.8187 668.129 13.5114V14.0383H662.059V12.9247H666.673C666.673 12.5336 666.593 12.1873 666.434 11.8857C666.275 11.5807 666.051 11.3404 665.763 11.1648C665.478 10.9891 665.143 10.9013 664.759 10.9013C664.341 10.9013 663.976 11.004 663.665 11.2095C663.357 11.4117 663.118 11.6768 662.949 12.005C662.783 12.3298 662.7 12.6828 662.7 13.0639V13.9339C662.7 14.4444 662.79 14.8785 662.969 15.2365C663.151 15.5945 663.405 15.8679 663.729 16.0568C664.054 16.2424 664.434 16.3352 664.868 16.3352C665.15 16.3352 665.406 16.2955 665.638 16.2159C665.871 16.133 666.071 16.0104 666.24 15.848C666.409 15.6856 666.538 15.4851 666.628 15.2464L668.035 15.5C667.922 15.9143 667.72 16.2772 667.428 16.5888C667.14 16.897 666.777 17.1373 666.339 17.3097C665.905 17.4787 665.41 17.5632 664.853 17.5632ZM674.954 12.9496V14.2372H670.818V12.9496H674.954ZM671.235 9.77272V17.4091H669.779V9.77272H671.235ZM675.993 9.77272V17.4091H674.541V9.77272H675.993ZM679.438 15.326L682.804 9.77272H684.405V17.4091H682.948V11.8508L679.597 17.4091H677.982V9.77272H679.438V15.326ZM690.958 17.4091V11.0405H689.128C688.694 11.0405 688.356 11.1416 688.114 11.3437C687.872 11.5459 687.751 11.8111 687.751 12.1392C687.751 12.464 687.862 12.7258 688.084 12.9247C688.309 13.1203 688.624 13.218 689.029 13.218H691.39V14.4212H689.029C688.465 14.4212 687.978 14.3284 687.567 14.1428C687.159 13.9538 686.844 13.687 686.622 13.3423C686.404 12.9976 686.294 12.59 686.294 12.1193C686.294 11.6387 686.407 11.2244 686.632 10.8764C686.861 10.5251 687.187 10.2533 687.612 10.0611C688.039 9.86884 688.545 9.77272 689.128 9.77272H692.355V17.4091H690.958ZM685.946 17.4091L688.099 13.5511H689.62L687.468 17.4091H685.946Z" fill="#012228"/>
<path d="M487 12C375.183 13.1918 28.5243 27.3739 69.3184 74.5681C120.311 133.561 614.742 125.516 236.796 209" stroke="#012228" stroke-dasharray="4 4"/>
<path d="M1.11861 199.591H2.98295L6.22443 207.506H6.34375L9.58523 199.591H11.4496V209.773H9.98793V202.405H9.89347L6.89062 209.758H5.67756L2.67472 202.4H2.58026V209.773H1.11861V199.591ZM16.8549 209.927C16.1026 209.927 15.4546 209.766 14.911 209.445C14.3708 209.12 13.9532 208.664 13.6582 208.077C13.3665 207.487 13.2207 206.796 13.2207 206.004C13.2207 205.222 13.3665 204.533 13.6582 203.936C13.9532 203.339 14.3642 202.874 14.8912 202.539C15.4215 202.204 16.0413 202.037 16.7505 202.037C17.1814 202.037 17.599 202.108 18.0034 202.251C18.4077 202.393 18.7707 202.617 19.0922 202.922C19.4136 203.227 19.6672 203.623 19.8528 204.11C20.0384 204.594 20.1312 205.182 20.1312 205.875V206.402H14.0609V205.288H18.6745C18.6745 204.897 18.595 204.551 18.4359 204.249C18.2768 203.944 18.0531 203.704 17.7647 203.528C17.4797 203.353 17.1449 203.265 16.7605 203.265C16.3429 203.265 15.9783 203.368 15.6667 203.573C15.3585 203.775 15.1199 204.04 14.9508 204.369C14.7851 204.693 14.7022 205.046 14.7022 205.428V206.298C14.7022 206.808 14.7917 207.242 14.9707 207.6C15.153 207.958 15.4065 208.232 15.7314 208.42C16.0562 208.606 16.4357 208.699 16.8699 208.699C17.1516 208.699 17.4084 208.659 17.6404 208.58C17.8725 208.497 18.073 208.374 18.242 208.212C18.411 208.049 18.5403 207.849 18.6298 207.61L20.0368 207.864C19.9241 208.278 19.7219 208.641 19.4302 208.952C19.1419 209.261 18.7789 209.501 18.3414 209.673C17.9073 209.842 17.4118 209.927 16.8549 209.927ZM24.9972 209.927C24.258 209.927 23.6217 209.759 23.0881 209.425C22.5578 209.087 22.1501 208.621 21.8651 208.028C21.58 207.434 21.4375 206.755 21.4375 205.989C21.4375 205.214 21.5833 204.529 21.875 203.936C22.1667 203.339 22.5777 202.874 23.108 202.539C23.6383 202.204 24.263 202.037 24.9822 202.037C25.5623 202.037 26.0793 202.145 26.5334 202.36C26.9875 202.572 27.3537 202.871 27.6321 203.255C27.9138 203.639 28.0812 204.089 28.1342 204.602H26.6875C26.608 204.244 26.4257 203.936 26.1406 203.678C25.8589 203.419 25.4811 203.29 25.0071 203.29C24.5928 203.29 24.2299 203.399 23.9183 203.618C23.6101 203.833 23.3698 204.142 23.1974 204.543C23.0251 204.94 22.9389 205.411 22.9389 205.955C22.9389 206.511 23.0234 206.992 23.1925 207.396C23.3615 207.801 23.6001 208.114 23.9084 208.336C24.2199 208.558 24.5862 208.669 25.0071 208.669C25.2888 208.669 25.544 208.618 25.7727 208.515C26.0047 208.409 26.1986 208.258 26.3544 208.063C26.5135 207.867 26.6245 207.632 26.6875 207.357H28.1342C28.0812 207.85 27.9205 208.291 27.652 208.679C27.3835 209.067 27.0239 209.372 26.5732 209.594C26.1257 209.816 25.6004 209.927 24.9972 209.927ZM29.146 203.419V202.136H35.5891V203.419H33.0984V209.773H31.6467V203.419H29.146ZM40.0225 209.927C39.3066 209.927 38.6819 209.763 38.1483 209.435C37.6146 209.107 37.2003 208.647 36.9054 208.058C36.6104 207.468 36.4629 206.778 36.4629 205.989C36.4629 205.197 36.6104 204.504 36.9054 203.911C37.2003 203.318 37.6146 202.857 38.1483 202.529C38.6819 202.201 39.3066 202.037 40.0225 202.037C40.7385 202.037 41.3632 202.201 41.8968 202.529C42.4305 202.857 42.8448 203.318 43.1397 203.911C43.4347 204.504 43.5822 205.197 43.5822 205.989C43.5822 206.778 43.4347 207.468 43.1397 208.058C42.8448 208.647 42.4305 209.107 41.8968 209.435C41.3632 209.763 40.7385 209.927 40.0225 209.927ZM40.0275 208.679C40.4915 208.679 40.876 208.556 41.1809 208.311C41.4859 208.066 41.7112 207.739 41.8571 207.332C42.0062 206.924 42.0808 206.475 42.0808 205.984C42.0808 205.497 42.0062 205.05 41.8571 204.642C41.7112 204.231 41.4859 203.901 41.1809 203.653C40.876 203.404 40.4915 203.28 40.0275 203.28C39.5602 203.28 39.1724 203.404 38.8642 203.653C38.5592 203.901 38.3322 204.231 38.1831 204.642C38.0372 205.05 37.9643 205.497 37.9643 205.984C37.9643 206.475 38.0372 206.924 38.1831 207.332C38.3322 207.739 38.5592 208.066 38.8642 208.311C39.1724 208.556 39.5602 208.679 40.0275 208.679ZM48.9466 209.773V202.136H55.176V209.773H53.7193V203.419H50.3933V209.773H48.9466ZM57.1634 212.636V202.136H58.6151V203.374H58.7393C58.8255 203.215 58.9498 203.031 59.1122 202.822C59.2746 202.614 59.5 202.431 59.7884 202.276C60.0767 202.116 60.4579 202.037 60.9318 202.037C61.5483 202.037 62.0985 202.193 62.5824 202.504C63.0663 202.816 63.4458 203.265 63.7209 203.852C63.9993 204.438 64.1385 205.144 64.1385 205.969C64.1385 206.795 64.0009 207.502 63.7259 208.092C63.4508 208.679 63.0729 209.131 62.5923 209.45C62.1117 209.764 61.5632 209.922 60.9467 209.922C60.4827 209.922 60.1032 209.844 59.8082 209.688C59.5166 209.532 59.2879 209.35 59.1222 209.141C58.9564 208.933 58.8288 208.747 58.7393 208.585H58.6499V212.636H57.1634ZM58.62 205.955C58.62 206.491 58.6979 206.962 58.8537 207.366C59.0095 207.771 59.2348 208.087 59.5298 208.316C59.8248 208.541 60.1861 208.654 60.6136 208.654C61.0578 208.654 61.429 208.536 61.7273 208.301C62.0256 208.063 62.2509 207.739 62.4034 207.332C62.5592 206.924 62.6371 206.465 62.6371 205.955C62.6371 205.451 62.5608 204.998 62.4084 204.597C62.2592 204.196 62.0339 203.88 61.7322 203.648C61.4339 203.416 61.0611 203.3 60.6136 203.3C60.1828 203.3 59.8182 203.411 59.5199 203.633C59.2249 203.855 59.0012 204.165 58.8487 204.563C58.6963 204.96 58.62 205.424 58.62 205.955ZM67.2607 207.69L70.6264 202.136H72.2273V209.773H70.7706V204.214L67.4197 209.773H65.804V202.136H67.2607V207.69ZM80.1172 199.293L80.7337 200.232C80.505 200.441 80.2448 200.59 79.9531 200.68C79.6648 200.766 79.3317 200.821 78.9538 200.844C78.576 200.864 78.1435 200.882 77.6562 200.898C77.1061 200.915 76.6536 201.034 76.299 201.256C75.9444 201.475 75.6709 201.8 75.4787 202.231C75.2898 202.658 75.1671 203.195 75.1108 203.842H75.2053C75.4538 203.368 75.7985 203.013 76.2393 202.778C76.6835 202.542 77.1823 202.425 77.7358 202.425C78.3523 202.425 78.9008 202.566 79.3814 202.847C79.862 203.129 80.2398 203.542 80.5149 204.085C80.7933 204.625 80.9325 205.287 80.9325 206.069C80.9325 206.861 80.7867 207.545 80.495 208.122C80.2067 208.699 79.799 209.145 79.272 209.46C78.7483 209.771 78.1302 209.927 77.4176 209.927C76.705 209.927 76.0836 209.766 75.5533 209.445C75.0263 209.12 74.617 208.639 74.3253 208.003C74.0369 207.366 73.8928 206.581 73.8928 205.646V204.891C73.8928 203.144 74.2043 201.83 74.8274 200.948C75.4505 200.067 76.3819 199.614 77.6214 199.591C78.0225 199.581 78.3804 199.579 78.6953 199.586C79.0102 199.589 79.2853 199.574 79.5206 199.541C79.7592 199.505 79.9581 199.422 80.1172 199.293ZM77.4226 208.679C77.8369 208.679 78.1932 208.575 78.4915 208.366C78.7931 208.154 79.0251 207.854 79.1875 207.466C79.3499 207.078 79.4311 206.621 79.4311 206.094C79.4311 205.577 79.3499 205.138 79.1875 204.776C79.0251 204.415 78.7931 204.14 78.4915 203.951C78.1899 203.759 77.8286 203.663 77.4077 203.663C77.0961 203.663 76.8177 203.717 76.5724 203.827C76.3272 203.933 76.1167 204.09 75.9411 204.299C75.7687 204.508 75.6345 204.763 75.5384 205.065C75.4455 205.363 75.3958 205.706 75.3892 206.094C75.3892 206.883 75.5698 207.511 75.9311 207.978C76.2957 208.445 76.7929 208.679 77.4226 208.679ZM83.7116 204.761H85.929C86.8636 204.761 87.5829 204.993 88.0866 205.457C88.5904 205.921 88.8423 206.52 88.8423 207.252C88.8423 207.729 88.7296 208.159 88.5043 208.54C88.2789 208.921 87.9491 209.223 87.5149 209.445C87.0807 209.663 86.5521 209.773 85.929 209.773H82.593V202.136H84.0497V208.49H85.929C86.3565 208.49 86.7079 208.379 86.983 208.157C87.258 207.932 87.3956 207.645 87.3956 207.297C87.3956 206.929 87.258 206.629 86.983 206.397C86.7079 206.162 86.3565 206.044 85.929 206.044H83.7116V204.761ZM89.9261 209.773V202.136H91.4126V209.773H89.9261ZM92.9799 203.419V202.136H99.4231V203.419H96.9324V209.773H95.4806V203.419H92.9799ZM102.452 207.69L105.818 202.136H107.419V209.773H105.962V204.214L102.611 209.773H100.995V202.136H102.452V207.69ZM113.971 209.773V203.404H112.142C111.708 203.404 111.369 203.505 111.127 203.707C110.886 203.91 110.765 204.175 110.765 204.503C110.765 204.828 110.876 205.089 111.098 205.288C111.323 205.484 111.638 205.582 112.042 205.582H114.404V206.785H112.042C111.479 206.785 110.992 206.692 110.581 206.506C110.173 206.317 109.858 206.051 109.636 205.706C109.417 205.361 109.308 204.954 109.308 204.483C109.308 204.002 109.421 203.588 109.646 203.24C109.875 202.889 110.201 202.617 110.625 202.425C111.053 202.232 111.558 202.136 112.142 202.136H115.368V209.773H113.971ZM108.96 209.773L111.113 205.915H112.634L110.481 209.773H108.96Z" fill="#012228"/>
<path d="M156.175 215.88L156.5 216.158L156.825 215.88L158.197 214.706C159.138 213.904 160.151 212.881 161.235 211.64L161.235 211.64C162.327 210.387 163.339 209 164.269 207.48L164.269 207.479C165.224 205.919 165.716 204.345 165.716 202.761C165.716 200.216 164.814 198.032 163.022 196.24C161.229 194.447 159.046 193.545 156.5 193.545C153.954 193.545 151.771 194.447 149.978 196.24C148.186 198.032 147.284 200.216 147.284 202.761C147.284 204.345 147.776 205.919 148.731 207.479L148.731 207.48C149.661 209 150.673 210.387 151.765 211.64L151.765 211.64C152.849 212.881 153.861 213.904 154.802 214.706C154.802 214.706 154.803 214.706 154.803 214.706L156.175 215.88ZM154.945 203.647L154.943 203.646C154.527 203.232 154.318 202.725 154.318 202.091C154.318 201.457 154.527 200.949 154.944 200.532C155.359 200.118 155.866 199.909 156.5 199.909C157.134 199.909 157.642 200.118 158.059 200.532C158.473 200.949 158.682 201.457 158.682 202.091C158.682 202.725 158.473 203.232 158.059 203.647C157.642 204.064 157.134 204.273 156.5 204.273C155.866 204.273 155.359 204.064 154.945 203.647ZM132.819 217.726L132.819 217.726C129.271 214.18 127.5 209.872 127.5 204.773C127.5 199.674 129.271 195.365 132.819 191.816C136.366 188.27 140.674 186.5 145.773 186.5H167.227C172.326 186.5 176.634 188.27 180.181 191.816C183.729 195.365 185.5 199.674 185.5 204.773C185.5 209.872 183.729 214.18 180.181 217.726L180.181 217.726C176.634 221.275 172.326 223.045 167.227 223.045H145.773C140.674 223.045 136.366 221.275 132.819 217.726Z" stroke="#012228"/>
</svg>
